<svg width="136" height="60" viewBox="0 0 136 60" fill="none" xmlns="http://www.w3.org/2000/svg">
<path d="M45.5597 20.4258L31.1944 12.1409C30.8754 11.9582 30.5143 11.8621 30.1468 11.8621C29.7793 11.8621 29.4182 11.9582 29.0992 12.1409L14.7145 20.4258C14.3928 20.6118 14.1256 20.8794 13.94 21.2017C13.7544 21.5239 13.6569 21.8895 13.6572 22.2615V28.6524L19.3607 31.9499V25.5589C19.3613 25.1871 19.4593 24.822 19.6448 24.4999C19.8303 24.1778 20.0969 23.91 20.4179 23.7233L30.1177 18.1045L34.7154 20.7657L39.8368 23.7233L46.5975 27.6083V22.2615C46.5999 21.8914 46.5052 21.5271 46.3231 21.205C46.141 20.8829 45.8778 20.6143 45.5597 20.4258ZM40.9135 29.1963V35.5727C40.9099 35.9419 40.8105 36.3039 40.6252 36.6232C40.4398 36.9424 40.1749 37.208 39.8562 37.3938L30.1565 43.0078L20.4179 37.3938L20.2967 37.3161L13.6572 33.5088V38.8507C13.6563 39.2222 13.7536 39.5873 13.9393 39.9089C14.125 40.2305 14.3925 40.4971 14.7145 40.6816L29.0992 49.0053C29.4198 49.1936 29.7848 49.2928 30.1565 49.2928C30.5282 49.2928 30.8931 49.1936 31.2138 49.0053L45.5791 40.701C45.9004 40.5124 46.1658 40.2417 46.3482 39.9166C46.5306 39.5914 46.6233 39.2236 46.6169 38.8507V32.4938L40.9135 29.1963Z" fill="#069A38"/>
<path d="M36.7087 33.8098V27.3169C36.706 27.149 36.6599 26.9848 36.5749 26.8401C36.4899 26.6954 36.3689 26.5752 36.2237 26.4913L30.6124 23.2424C30.4649 23.1572 30.2977 23.1123 30.1274 23.1123C29.9571 23.1123 29.7899 23.1572 29.6424 23.2424L24.0457 26.4913C23.9005 26.5752 23.7795 26.6954 23.6945 26.8401C23.6095 26.9848 23.5634 27.149 23.5607 27.3169V33.8098C23.5634 33.9777 23.6095 34.1419 23.6945 34.2866C23.7795 34.4313 23.9005 34.5515 24.0457 34.6354L29.6618 37.8794C29.8093 37.9647 29.9765 38.0095 30.1468 38.0095C30.3171 38.0095 30.4843 37.9647 30.6318 37.8794L36.2528 34.6305C36.3919 34.5435 36.5066 34.4225 36.5864 34.279C36.6661 34.1355 36.7082 33.9741 36.7087 33.8098Z" fill="#FDE000"/>
<path d="M51.3795 33.6981L52.8635 31.5662C53.6889 32.3561 54.787 32.7963 55.9287 32.7949C56.467 32.7949 56.9811 32.6492 56.9811 32.2801C56.9811 31.3671 51.6802 32.2801 51.6802 28.5407C51.6802 26.9284 53.0187 25.3841 55.628 25.3841C57.0911 25.3388 58.5238 25.8079 59.6776 26.7099L58.1354 28.7495C57.3256 28.1506 56.3485 27.821 55.3418 27.8074C54.7744 27.8074 54.6144 27.992 54.6144 28.2348C54.6144 29.1332 59.9056 28.361 59.9056 31.9013C59.9056 33.9992 58.3488 35.2133 55.7977 35.2133C53.7753 35.2085 52.3786 34.6111 51.3795 33.6981Z" fill="#FDE000"/>
<path d="M60.8416 31.1291V25.52H63.7515V31.0271C63.7515 31.9401 64.348 32.6685 65.5314 32.6685C66.7148 32.6685 67.3016 31.9401 67.3016 31.0271V25.52H70.2115V31.1145C70.2115 33.4844 68.7566 35.2084 65.5217 35.2084C62.2868 35.2084 60.8416 33.5087 60.8416 31.1291Z" fill="#FDE000"/>
<path d="M78.1605 35.0384L74.654 30.2161V35.0384H71.778V25.52H74.7413L78.0489 30.0267V25.52H80.9249V35.0384H78.1605Z" fill="#FDE000"/>
<path d="M82.4478 30.2842C82.4259 29.6373 82.5359 28.9928 82.771 28.39C83.0061 27.7871 83.3614 27.2386 83.8152 26.7777C84.2691 26.3169 84.8119 25.9536 85.4106 25.7098C86.0094 25.466 86.6514 25.3469 87.2976 25.3598C88.0099 25.3454 88.7156 25.4997 89.357 25.8103C89.9984 26.1209 90.5574 26.5789 90.9884 27.147L90.0475 27.7297C89.7169 27.3185 89.298 26.987 88.8219 26.76C88.3459 26.533 87.8249 26.4163 87.2976 26.4185C85.217 26.4185 83.636 28.0162 83.636 30.3036C83.636 32.5909 85.217 34.1887 87.2976 34.1887C88.2474 34.181 89.159 33.8131 89.8487 33.1591V31.2166H86.5847V30.1433H91.032V33.5816C90.5619 34.1053 89.9856 34.5226 89.3416 34.8056C88.6977 35.0887 88.0008 35.231 87.2976 35.2231C86.6505 35.2346 86.0079 35.1142 85.4088 34.869C84.8097 34.6239 84.2667 34.2591 83.8129 33.797C83.3592 33.3349 83.0041 32.7852 82.7694 32.1812C82.5347 31.5773 82.4253 30.9318 82.4478 30.2842Z" fill="#069A38"/>
<path d="M99.7133 35.0384L98.8694 32.9259H94.1408L93.2969 35.0384H91.9438L95.7655 25.52H97.2204L101.057 35.0384H99.7133ZM96.5124 26.7438L94.4851 31.8673H98.5202L96.5124 26.7438Z" fill="#069A38"/>
<path d="M110.431 35.0384V27.1955L107.182 35.0384H106.697L103.491 27.1955V35.0384H102.332V25.52H104.025L106.978 32.6831L109.942 25.52H111.639V35.0384H110.431Z" fill="#069A38"/>
<path d="M113.836 35.0384V25.52H120.068V26.5738H115.019V29.6236H119.966V30.6823H115.019V33.9943H120.068V35.053L113.836 35.0384Z" fill="#069A38"/>
</svg>
